<?xml version="1.0" encoding="utf-8"?>
<!-- Generator: Adobe Illustrator 18.1.0, SVG Export Plug-In . SVG Version: 6.00 Build 0)  -->
<svg version="1.1" id="Layer_1" xmlns="http://www.w3.org/2000/svg" xmlns:xlink="http://www.w3.org/1999/xlink" x="0px" y="0px"
	 viewBox="0 0 612 612" enable-background="new 0 0 612 612" xml:space="preserve">
<circle fill="#FFFFFF" cx="305.6" cy="307.4" r="280.2"/>
<g>
	<path fill="#9DB43A" d="M411.6,250.2c0,66.5-46.4,120.5-103.7,120.5c-0.4,0-0.8,0-1.2,0v-241c0.4,0,0.8,0,1.2,0
		C365.2,129.7,411.6,183.6,411.6,250.2z"/>
	<path fill="#909938" d="M306.7,129.7v241c-56.7-0.8-102.5-54.4-102.5-120.5C204.2,184.1,250,130.4,306.7,129.7z"/>
	<path fill="#909938" d="M238.2,297.7v72.9c-18-0.5-32.4-16.6-32.4-36.5S220.3,298.2,238.2,297.7z"/>
	<path fill="#9DB43A" d="M272.3,334.2c0,20.1-14.9,36.5-33.2,36.5c-0.3,0-0.6,0-0.8,0v-72.9c0.3,0,0.6,0,0.8,0
		C257.4,297.7,272.3,314,272.3,334.2z"/>
	<path fill="#909938" d="M368.8,249.4l-0.2,135.2c-33.3-0.2-60.3-30.8-60.3-68.4c0-34.4,22.5-62.9,51.8-67.7
		C362.9,248,365.6,248.3,368.8,249.4z"/>
	<path fill="#9DB43A" d="M429.7,316.1c0,37.8-27.2,68.5-60.7,68.5c-0.1,0-0.3,0-0.4,0V248.5c-0.1-0.2-0.1-0.5-0.2-0.8
		c0.1,0,0.1,0,0.2,0c0.1,0,0.3,0,0.4,0c0.4,0,0.7,0,1.1,0c0.5,0,0.9,0,1.4,0c2.2,0.1,4.4,0.3,6.5,0.7
		C407.2,253.4,429.7,281.8,429.7,316.1z"/>
	<path fill="#ED8172" d="M375,217.5v30.2h-0.2c0.1,0.3,0.1,0.5,0.2,0.8v4.3c-3.3-1.1-6-2.6-8.5-4.4c-12.2-8.4-15.2-21.8-15.2-21.8
		c9.8,2.8,15.7,7.7,19.2,12.4c-1.6-12.6,3.9-22.6,3.9-22.6C374.6,216.8,374.8,217.1,375,217.5z"/>
	<path fill="#F4978E" d="M380.4,238.8C380.4,238.8,380.4,238.8,380.4,238.8c-0.4,3.7-1.4,6.7-2.5,8.9c-0.8,1.8-1.7,3.1-2.3,3.8
		c0,0,0,0,0,0c-0.4,0.5-0.6,0.8-0.6,0.8v-3.9c-0.1-0.2-0.1-0.5-0.2-0.8c0.1,0,0.1,0,0.2,0v-30.3C380,225.8,381,233.1,380.4,238.8z"
		/>
	<path fill="#F4978E" d="M397.1,224.5c0,0-18.9,7.7-22.2,28.3C375,252.8,394.1,249.7,397.1,224.5z"/>
	<polygon fill="#DAC827" points="402.7,262.9 404.2,264.7 411.9,254.9 	"/>
	<polygon fill="#C9B52E" points="354.1,264.1 351.3,266.5 341.5,255.2 	"/>
	<polygon fill="#C9B52E" points="316,313.9 314.8,316.7 305.6,307.4 	"/>
	<polygon fill="#C9B52E" points="358.1,295.8 356.3,298.5 345.8,288.1 	"/>
	<polygon fill="#DAC827" points="386.1,299.1 388.2,301.9 398.1,290.2 	"/>
	<polygon fill="#DAC827" points="427.3,301.6 429.7,304.7 439,292.7 	"/>
	<polygon fill="#DAC827" points="389.2,338.2 391,340.9 399.9,328.3 	"/>
	<polygon fill="#C9B52E" points="356,345.9 353.5,348.9 342.5,337.9 	"/>
	<g>
		<polygon fill="#C9B52E" points="268.4,153.7 265,156.5 248.1,139.9 		"/>
		<polygon fill="#C9B52E" points="277.6,207.8 273.9,212.1 257.9,195.8 		"/>
		<polygon fill="#C9B52E" points="218,239.5 214.6,243.5 199.8,227.2 		"/>
		<polygon fill="#DAC827" points="324.3,214 328.6,218 342.5,197.4 		"/>
		<polygon fill="#DAC827" points="351.7,151.6 356,154.7 369.8,135.6 		"/>
		<polygon fill="#DAC827" points="395.9,218 399.3,220.4 414.1,202.9 		"/>
		<polygon fill="#C9B52E" points="282.2,292.7 279.4,295.1 262.2,280.1 		"/>
		<polygon fill="#DAC827" points="224.7,302.8 223.2,305 219.2,299.3 		"/>
		<polygon fill="#DAC827" points="253.3,302.4 254.7,303.9 259.3,297.6 		"/>
		<polygon fill="#DAC827" points="242.2,323.3 244.2,325 248.2,319.3 		"/>
		<polygon fill="#DAC827" points="267.4,324 269.4,326 273.6,319.4 		"/>
		<polygon fill="#DAC827" points="248.4,344.3 250.7,346.3 255.3,339.4 		"/>
		<polygon fill="#DAC827" points="228.7,319.9 227.6,322.8 221.2,317 		"/>
		<polygon fill="#DAC827" points="230.4,347.7 228.9,350.2 221.3,342.8 		"/>
		<polygon fill="#DAC827" points="209.2,331.4 208.3,333.7 201.7,327.9 		"/>
	</g>
	<polygon fill="#F6BC16" points="307.1,354.7 307.1,496.1 215.3,496.1 171.4,354.3 	"/>
	<polygon fill="#FAC810" points="445.8,355.1 407,496.1 307.1,496.1 307.1,354.7 	"/>
</g>
</svg>
